                The Band Perry - If I Die Young[2010].avi
  
      Format : AVI
      Format/Info : Audio Video Interleave
      File size : 36.3 MiB
      Duration : 3mn 50s
      Overall bit rate : 1 322 Kbps
      Writing application : Lavf51.12.1
   Video
      Format : MPEG-4 Visual
      Format profile : Simple@L1
      Format settings, BVOP : No
      Format settings, QPel : No
      Format settings, GMC : No warppoints
      Format settings, Matrix : Default
      Codec ID : DX50
      Codec ID/Hint : DivX 5
      Duration : 3mn 49s
      Bit rate : 1 183 Kbps
      Width : 640 pixels
      Height : 360 pixels
      Display aspect ratio : 16/9
      Frame rate : 29.970 fps
      Resolution : 24 bits
      Colorimetry : 4:2:0
      Scan type : Progressive
      Bits/(Pixel*Frame) : 0.171
      Stream size : 32.4 MiB (89%)
      Writing library : Lavc51.40.4
   Audio
      Format : MPEG Audio
      Format version : Version 1
      Format profile : Layer 3
      Codec ID : 55
      Codec ID/Hint : MP3
      Duration : 3mn 50s
      Bit rate mode : Constant
      Bit rate : 128 Kbps
      Channel(s) : 2 channels
      Sampling rate : 44.1 KHz
      Resolution : 16 bits
      Stream size : 3.51 MiB (10%)
      Alignment : Aligned on interleaves
      Interleave, duration : 26 ms (0.78 video frame)
